{"title":"Sucker.Punch.2011.BRRip.XviD-RLF","uid":6479302,"size":744018153,"categoryP":"video","categoryS":"movies","magnet":"?xt=urn:btih:892b1a811b70ee0566e41c1f4a564033d90ca750&amp;dn=Sucker.Punch.2011.BRRip.XviD-RLF&amp;tr=udp%3A%2F%2Ftracker.openbittorrent.com%3A80&amp;tr=udp%3A%2F%2Fopen.demonii.com%3A1337&amp;tr=udp%3A%2F%2Ftracker.coppersurfer.tk%3A6969&amp;tr=udp%3A%2F%2Fexodus.desync.com%3A6969","seeders":0,"leechers":0,"uploader":"rlf-rls","files":-1,"time":1308436186,"description":"                                Sucker.Punch.2011.BRRip.XviD-RLF\n                                ~~~~~~~~~~~~~~~~~~~~~~~~~~~~~~~~\n\n\n                                           General:\n\n\n                  Complete name                    : rlf-punch.avi\n                  Format                           : AVI\n                  Format/Info                      : Audio Video Interleave\n                  File size                        : 700 MiB\n                  Duration                         : 1h 49mn\n                  Overall bit rate                 : 892 Kbps Complete name      \n                  Language                         : English\n                  Subs                             : Cheeck google :)\n                  Encoder                          : Ralf\n\n                                            Video:\n\n                  Format                           : MPEG-4 Visual\n                  Format profile                   : Advanced Simple@L5\n                  Format settings, BVOP            : 2\n                  Format settings, QPel            : No\n                  Format settings, GMC             : No warppoints\n                  Format settings, Matrix          : (H.263)\n                  Muxing mode                      : Packed bitstream\n                  Codec ID/Hint                    : XviD\n                  Duration                         : 1h 49mn\n                  Bit rate                         : 751 Kbps\n                  Width                            : 688 pixels\n                  Height                           : 288 pixels\n                  Display aspect ratio             : 2.35:1\n                  Frame rate                       : 23.976 fps\n                  Color space                      : YUV\n                  Chroma subsampling               : 4:2:0\n                  Bit depth                        : 8 bits\n                  Scan type                        : Progressive\n                  Bits/(Pixel*Frame)               : 0.158\n                  Stream size                      : 590 MiB (84%)\n                  Writing library                  : XviD 1.2.1 \n\n                                            Audio:\n\n                  Format                           : MPEG Audio\n                  Format profile                   : Layer 3\n                  Codec ID/Hint                    : MP3\n                  Duration                         : 1h 49mn\n                  Bit rate mode                    : Constant\n                  Bit rate                         : 128 Kbps\n                  Channel(s)                       : 2 channels\n                  Sampling rate                    : 48.0 KHz\n                  Compression mode                 : Lossy\n                  Stream size                      : 100 MiB (14%)\n                  Alignment                        : Split accross interleaves\n                  Interleave, duration             : 24 ms (0.58 video frame)\n\n\n\n                                         MOVIE INFO:\n\n                  A young girl is institutionalized by her abusive stepfather. \n                  Retreating to an alternative reality as a coping strategy, \n                  she envisions a plan which will help her escape from the \n                                      mental facility.\n                               \n                            &lt;a href=&quot; http://www.imdb.com/title/tt0978764/&quot; rel=&quot;nofollow&quot; target=&quot;_NEW&quot;&gt; http://www.imdb.com/title/tt0978764/&lt;/a&gt;\n                     &lt;a href=&quot; http://www.filmweb.pl/film/Sucker+Punch-2011-501864&quot; rel=&quot;nofollow&quot; target=&quot;_NEW&quot;&gt; http://www.filmweb.pl/film/Sucker+Punch-2011-501864&lt;/a&gt;\n\n                                          SOURCE:\n\n                                Felony 720p.BluRay.x264 (THX)\n                           \n                                                                          \n                                                                     \n                                          NOTES:\n\n                    Some guys says that my previus releases had bad ar... \n                          and they right so... check this out :) \n    \n                    And today i am too drunk to do subs... sorry :) and\n                                sorry for my bad english :) \n\n\n","torrent":{"xt":"urn:btih:892b1a811b70ee0566e41c1f4a564033d90ca750","amp;dn":"Sucker.Punch.2011.BRRip.XviD-RLF","amp;tr":["udp%3A%2F%2Ftracker.openbittorrent.com%3A80","udp%3A%2F%2Fopen.demonii.com%3A1337","udp%3A%2F%2Ftracker.coppersurfer.tk%3A6969","udp%3A%2F%2Fexodus.desync.com%3A6969"],"infoHash":"892b1a811b70ee0566e41c1f4a564033d90ca750","infoHashBuffer":{"type":"Buffer","data":[137,43,26,129,27,112,238,5,102,228,28,31,74,86,64,51,217,12,167,80]},"announce":[],"urlList":[]}}